<?xml version="1.0" encoding="iso-8859-1"?>
<!-- Generator: Adobe Illustrator 19.1.1, SVG Export Plug-In . SVG Version: 6.00 Build 0)  -->
<svg version="1.1" id="Layer_1" xmlns="http://www.w3.org/2000/svg" xmlns:xlink="http://www.w3.org/1999/xlink" x="0px" y="0px"
	 viewBox="0 0 48 48" enable-background="new 0 0 48 48" xml:space="preserve">
<path fill="#546E7A" d="M30,10H18c-0.55,0-1-0.45-1-1V8c0-0.55,0.45-1,1-1h12c0.55,0,1,0.45,1,1v1C31,9.55,30.55,10,30,10z"/>
<path fill="#78909C" d="M37,28v-6c0-0.55,0.45-1,1-1h2c0.55,0,1,0.45,1,1v6c0,0.55-0.45,1-1,1h-2C37.45,29,37,28.55,37,28z
	 M32.234,12.287l-1.423,1.405c-0.391,0.386-0.396,1.023-0.009,1.414l5.37,4.875c0.386,0.391,1.023,0.396,1.414,0.009l1.423-1.405
	c0.391-0.386,0.396-1.023,0.009-1.414l-5.37-4.875C33.262,11.905,32.626,11.901,32.234,12.287z M32,33v-7c0-0.55-0.45-1-1-1h-4
	c-0.55,0-1,0.45-1,1v7c0,0.55,0.45,1,1,1h4C31.55,34,32,33.55,32,33z M32,42v-5c0-0.55-0.45-1-1-1h-4c-0.55,0-1,0.45-1,1v5
	c0,0.55,0.45,1,1,1h4C31.55,43,32,42.55,32,42z M22,33v-7c0-0.55-0.45-1-1-1h-4c-0.55,0-1,0.45-1,1v7c0,0.55,0.45,1,1,1h4
	C21.55,34,22,33.55,22,33z M11,28v-6c0-0.55-0.45-1-1-1H8c-0.55,0-1,0.45-1,1v6c0,0.55,0.45,1,1,1h2C10.55,29,11,28.55,11,28z
	 M14.351,12.296l-5.37,4.875c-0.386,0.391-0.382,1.028,0.009,1.414l1.423,1.405c0.391,0.386,1.028,0.382,1.414-0.009l5.37-4.875
	c0.386-0.391,0.382-1.028-0.009-1.414l-1.423-1.405C15.374,11.901,14.738,11.905,14.351,12.296z M22,42v-5c0-0.55-0.45-1-1-1h-4
	c-0.55,0-1,0.45-1,1v5c0,0.55,0.45,1,1,1h4C21.55,43,22,42.55,22,42z M30,13V5.031C30,4.462,29.538,4,28.969,4h-9.938
	C18.462,4,18,4.462,18,5.031V13c0,0.57,0.462,1.031,1.031,1.031h9.938C29.538,14.031,30,13.57,30,13z"/>
<path fill="#90A4AE" d="M33,27H15c-0.55,0-1-0.45-1-1V13c0-0.55,0.45-1,1-1h18c0.55,0,1,0.45,1,1v13C34,26.55,33.55,27,33,27z"/>
<rect x="19" y="16" fill="#263238" width="10" height="6"/>
<path fill="#455A64" d="M26,10l-4,0c-1.1,0-2-0.9-2-2v0c0-1.1,0.9-2,2-2l4,0c1.1,0,2,0.9,2,2v0C28,9.1,27.1,10,26,10z M19,37
	c1.105,0,2-0.895,2-2s-0.895-2-2-2s-2,0.895-2,2S17.895,37,19,37z M9,22c1.105,0,2-0.895,2-2s-0.895-2-2-2s-2,0.895-2,2
	S7.895,22,9,22z M41,20c0-1.105-0.895-2-2-2s-2,0.895-2,2s0.895,2,2,2S41,21.105,41,20z M29,37c1.105,0,2-0.895,2-2s-0.895-2-2-2
	s-2,0.895-2,2S27.895,37,29,37z"/>
<path fill="#18FFFF" d="M21,8c0-0.552,0.448-1,1-1s1,0.448,1,1s-0.448,1-1,1S21,8.552,21,8z M26,9c0.552,0,1-0.448,1-1s-0.448-1-1-1
	s-1,0.448-1,1S25.448,9,26,9z"/>
<path fill="#1DE9B6" d="M27,21h-2v-4h2V21z M23,18h-2v3h2V18z"/>
<path fill="#607D8B" d="M22,29h-6v-2h6V29z M32,27h-6v2h6V27z M12,19.826l2-1.816v-5.395l-2,1.816V19.826z M34,18.01l2,1.816v-5.395
	l-2-1.816V18.01z"/>
<path fill="#90A4AE" d="M12,31c0,0.553-0.448,1-1,1s-1-0.447-1-1c0-0.552-0.449-1-1-1s-1,0.448-1,1c0,0.553-0.448,1-1,1
	s-1-0.447-1-1c0-0.986,0.484-1.855,1.221-2.402C7.404,28.836,7.678,29,8,29h2c0.322,0,0.596-0.164,0.779-0.402
	C11.516,29.145,12,30.014,12,31z M40.779,28.598C40.596,28.836,40.322,29,40,29h-2c-0.322,0-0.596-0.164-0.779-0.402
	C36.484,29.145,36,30.014,36,31c0,0.553,0.447,1,1,1s1-0.447,1-1c0-0.552,0.448-1,1-1s1,0.448,1,1c0,0.553,0.447,1,1,1s1-0.447,1-1
	C42,30.014,41.516,29.145,40.779,28.598z M23,44L23,44c0-1.1-0.9-2-2-2h-4c-1.1,0-2,0.9-2,2v0H23z M33,44L33,44c0-1.1-0.9-2-2-2h-4
	c-1.1,0-2,0.9-2,2v0H33z"/>
</svg>
